<svg width="158" height="34" viewBox="0 0 158 34" fill="none" xmlns="http://www.w3.org/2000/svg">
<path d="M19.7131 29.9037H0V34H19.7131V29.9037Z" fill="#EF3124"/>
<path d="M13.4406 7C12.8791 5.32377 12.2316 4 10.0103 4C7.78894 4 7.10041 5.31762 6.51025 7L0.409836 24.3381H4.45492L5.86271 20.2172H13.6455L14.9508 24.3381H19.2521L13.4406 7ZM7.04099 16.7357L9.80533 8.51845H9.90779L12.5184 16.7357H7.03894H7.04099Z" fill="#EF3124"/>
<mask id="path-3-outside-1_12_978" maskUnits="userSpaceOnUse" x="28" y="4" width="129" height="22" fill="black">
<rect fill="white" x="28" y="4" width="129" height="22"/>
<path d="M28.56 25L35.112 4.84H39.326L45.878 25H42.84L36.806 6.604H37.562L31.598 25H28.56ZM31.962 20.45V17.706H42.49V20.45H31.962ZM48.6697 25V4.42H51.5957V25H48.6697ZM57.1858 25V9.348C57.1858 8.96533 57.1998 8.55933 57.2278 8.13C57.2558 7.69133 57.3352 7.262 57.4658 6.842C57.6058 6.41267 57.8345 6.02067 58.1518 5.666C58.5345 5.246 58.9545 4.94733 59.4118 4.77C59.8692 4.59267 60.3218 4.49 60.7698 4.462C61.2272 4.434 61.6472 4.42 62.0298 4.42H63.9338V6.828H62.1698C61.4792 6.828 60.9612 7.00067 60.6158 7.346C60.2798 7.682 60.1118 8.16267 60.1118 8.788V25H57.1858ZM54.6798 12.232V9.88H63.9338V12.232H54.6798ZM70.023 25.42C68.903 25.42 67.965 25.2147 67.209 24.804C66.453 24.384 65.879 23.8333 65.487 23.152C65.1043 22.4613 64.913 21.7053 64.913 20.884C64.913 20.1187 65.0483 19.4467 65.319 18.868C65.5896 18.2893 65.991 17.7993 66.523 17.398C67.055 16.9873 67.7083 16.656 68.483 16.404C69.155 16.208 69.9156 16.0353 70.765 15.886C71.6143 15.7367 72.5056 15.5967 73.439 15.466C74.3816 15.3353 75.315 15.2047 76.239 15.074L75.175 15.662C75.1936 14.4767 74.9416 13.5993 74.419 13.03C73.9056 12.4513 73.019 12.162 71.759 12.162C70.9656 12.162 70.2376 12.3487 69.575 12.722C68.9123 13.086 68.4503 13.6927 68.189 14.542L65.459 13.702C65.8323 12.4047 66.5416 11.3733 67.587 10.608C68.6416 9.84267 70.0416 9.46 71.787 9.46C73.1403 9.46 74.3163 9.69333 75.315 10.16C76.323 10.6173 77.0603 11.3453 77.527 12.344C77.7696 12.8387 77.919 13.3613 77.975 13.912C78.031 14.4627 78.059 15.0553 78.059 15.69V25H75.469V21.542L75.973 21.99C75.3476 23.1473 74.5496 24.0107 73.579 24.58C72.6176 25.14 71.4323 25.42 70.023 25.42ZM70.541 23.026C71.3716 23.026 72.0856 22.8813 72.683 22.592C73.2803 22.2933 73.761 21.9153 74.125 21.458C74.489 21.0007 74.727 20.5247 74.839 20.03C74.9976 19.582 75.0863 19.078 75.105 18.518C75.133 17.958 75.147 17.51 75.147 17.174L76.099 17.524C75.175 17.664 74.335 17.79 73.579 17.902C72.823 18.014 72.137 18.126 71.521 18.238C70.9143 18.3407 70.373 18.4667 69.897 18.616C69.4956 18.756 69.1363 18.924 68.819 19.12C68.511 19.316 68.2636 19.554 68.077 19.834C67.8996 20.114 67.811 20.4547 67.811 20.856C67.811 21.248 67.909 21.612 68.105 21.948C68.301 22.2747 68.5996 22.536 69.001 22.732C69.4023 22.928 69.9156 23.026 70.541 23.026ZM89.0024 25.42C87.5557 25.42 86.249 25.1727 85.0824 24.678C83.925 24.174 82.9684 23.46 82.2124 22.536C81.4657 21.6027 80.9804 20.4967 80.7564 19.218L83.8084 18.756C84.1164 19.988 84.7604 20.9493 85.7404 21.64C86.7204 22.3213 87.8637 22.662 89.1704 22.662C89.9824 22.662 90.729 22.536 91.4104 22.284C92.0917 22.0227 92.6377 21.654 93.0484 21.178C93.4684 20.6927 93.6784 20.114 93.6784 19.442C93.6784 19.078 93.613 18.756 93.4824 18.476C93.361 18.196 93.1884 17.9533 92.9644 17.748C92.7497 17.5333 92.4837 17.3513 92.1664 17.202C91.8584 17.0433 91.5177 16.908 91.1444 16.796L85.9784 15.27C85.4744 15.1207 84.961 14.9293 84.4384 14.696C83.9157 14.4533 83.435 14.1407 82.9964 13.758C82.567 13.366 82.217 12.8853 81.9464 12.316C81.6757 11.7373 81.5404 11.0373 81.5404 10.216C81.5404 8.97467 81.8577 7.92467 82.4924 7.066C83.1364 6.198 84.0044 5.54467 85.0964 5.106C86.1884 4.658 87.411 4.434 88.7644 4.434C90.127 4.45267 91.345 4.69533 92.4184 5.162C93.501 5.62867 94.397 6.30067 95.1064 7.178C95.825 8.046 96.3197 9.10067 96.5904 10.342L93.4544 10.874C93.3144 10.118 93.0157 9.46933 92.5584 8.928C92.101 8.37733 91.541 7.95733 90.8784 7.668C90.2157 7.36933 89.497 7.21533 88.7224 7.206C87.9757 7.18733 87.2897 7.29933 86.6644 7.542C86.0484 7.78467 85.5537 8.12533 85.1804 8.564C84.8164 9.00267 84.6344 9.50667 84.6344 10.076C84.6344 10.636 84.7977 11.0887 85.1244 11.434C85.451 11.7793 85.8524 12.0547 86.3284 12.26C86.8137 12.456 87.2944 12.6193 87.7704 12.75L91.4944 13.8C91.961 13.9307 92.4884 14.108 93.0764 14.332C93.6737 14.5467 94.2477 14.85 94.7984 15.242C95.3584 15.634 95.8204 16.1567 96.1844 16.81C96.5484 17.454 96.7304 18.266 96.7304 19.246C96.7304 20.2633 96.525 21.1593 96.1144 21.934C95.7037 22.6993 95.139 23.3433 94.4204 23.866C93.711 24.3793 92.8897 24.7667 91.9564 25.028C91.023 25.2893 90.0384 25.42 89.0024 25.42ZM106.182 25.42C104.633 25.42 103.317 25.0747 102.234 24.384C101.151 23.6933 100.321 22.746 99.7419 21.542C99.1726 20.338 98.8832 18.9707 98.8739 17.44C98.8832 15.8813 99.1819 14.5047 99.7699 13.31C100.358 12.106 101.198 11.1633 102.29 10.482C103.382 9.80067 104.693 9.46 106.224 9.46C107.876 9.46 109.285 9.87067 110.452 10.692C111.628 11.5133 112.403 12.638 112.776 14.066L109.864 14.906C109.575 14.0567 109.099 13.3987 108.436 12.932C107.783 12.456 107.031 12.218 106.182 12.218C105.221 12.218 104.432 12.4467 103.816 12.904C103.2 13.352 102.743 13.968 102.444 14.752C102.145 15.536 101.991 16.432 101.982 17.44C101.991 18.9987 102.346 20.2587 103.046 21.22C103.755 22.1813 104.801 22.662 106.182 22.662C107.125 22.662 107.885 22.4473 108.464 22.018C109.052 21.5793 109.5 20.954 109.808 20.142L112.776 20.842C112.281 22.3167 111.465 23.4507 110.326 24.244C109.187 25.028 107.806 25.42 106.182 25.42ZM121.784 25.42C120.272 25.42 118.96 25.0793 117.85 24.398C116.739 23.7167 115.88 22.7787 115.274 21.584C114.676 20.38 114.378 18.994 114.378 17.426C114.378 15.8487 114.686 14.4627 115.302 13.268C115.918 12.064 116.781 11.1307 117.892 10.468C119.002 9.796 120.3 9.46 121.784 9.46C123.296 9.46 124.607 9.80067 125.718 10.482C126.828 11.1633 127.687 12.1013 128.294 13.296C128.9 14.4907 129.204 15.8673 129.204 17.426C129.204 19.0033 128.896 20.394 128.28 21.598C127.673 22.7927 126.814 23.7307 125.704 24.412C124.593 25.084 123.286 25.42 121.784 25.42ZM121.784 22.662C123.23 22.662 124.308 22.1767 125.018 21.206C125.736 20.226 126.096 18.966 126.096 17.426C126.096 15.8487 125.732 14.5887 125.004 13.646C124.285 12.694 123.212 12.218 121.784 12.218C120.804 12.218 119.996 12.442 119.362 12.89C118.727 13.3287 118.256 13.94 117.948 14.724C117.64 15.4987 117.486 16.3993 117.486 17.426C117.486 19.0127 117.85 20.282 118.578 21.234C119.306 22.186 120.374 22.662 121.784 22.662ZM132.28 25V9.88H134.884V13.548L134.52 13.072C134.707 12.5867 134.95 12.1433 135.248 11.742C135.547 11.3313 135.892 10.9953 136.284 10.734C136.667 10.454 137.092 10.2393 137.558 10.09C138.034 9.93133 138.52 9.838 139.014 9.81C139.509 9.77267 139.985 9.796 140.442 9.88V12.624C139.948 12.4933 139.397 12.456 138.79 12.512C138.193 12.568 137.642 12.7593 137.138 13.086C136.662 13.394 136.284 13.7673 136.004 14.206C135.734 14.6447 135.538 15.1347 135.416 15.676C135.295 16.208 135.234 16.7727 135.234 17.37V25H132.28ZM149.541 25.42C148.038 25.42 146.718 25.0933 145.579 24.44C144.45 23.7773 143.568 22.858 142.933 21.682C142.308 20.4967 141.995 19.1247 141.995 17.566C141.995 15.914 142.303 14.4813 142.919 13.268C143.544 12.0547 144.412 11.1167 145.523 10.454C146.634 9.79133 147.926 9.46 149.401 9.46C150.941 9.46 152.252 9.81933 153.335 10.538C154.418 11.2473 155.225 12.26 155.757 13.576C156.298 14.892 156.513 16.4553 156.401 18.266H153.475V17.202C153.456 15.4473 153.12 14.15 152.467 13.31C151.823 12.47 150.838 12.05 149.513 12.05C148.048 12.05 146.946 12.512 146.209 13.436C145.472 14.36 145.103 15.6947 145.103 17.44C145.103 19.1013 145.472 20.3893 146.209 21.304C146.946 22.2093 148.01 22.662 149.401 22.662C150.316 22.662 151.104 22.4567 151.767 22.046C152.439 21.626 152.962 21.0287 153.335 20.254L156.205 21.164C155.617 22.5173 154.726 23.5673 153.531 24.314C152.336 25.0513 151.006 25.42 149.541 25.42ZM144.151 18.266V15.984H154.945V18.266H144.151Z"/>
</mask>
<path d="M28.56 25L35.112 4.84H39.326L45.878 25H42.84L36.806 6.604H37.562L31.598 25H28.56ZM31.962 20.45V17.706H42.49V20.45H31.962ZM48.6697 25V4.42H51.5957V25H48.6697ZM57.1858 25V9.348C57.1858 8.96533 57.1998 8.55933 57.2278 8.13C57.2558 7.69133 57.3352 7.262 57.4658 6.842C57.6058 6.41267 57.8345 6.02067 58.1518 5.666C58.5345 5.246 58.9545 4.94733 59.4118 4.77C59.8692 4.59267 60.3218 4.49 60.7698 4.462C61.2272 4.434 61.6472 4.42 62.0298 4.42H63.9338V6.828H62.1698C61.4792 6.828 60.9612 7.00067 60.6158 7.346C60.2798 7.682 60.1118 8.16267 60.1118 8.788V25H57.1858ZM54.6798 12.232V9.88H63.9338V12.232H54.6798ZM70.023 25.42C68.903 25.42 67.965 25.2147 67.209 24.804C66.453 24.384 65.879 23.8333 65.487 23.152C65.1043 22.4613 64.913 21.7053 64.913 20.884C64.913 20.1187 65.0483 19.4467 65.319 18.868C65.5896 18.2893 65.991 17.7993 66.523 17.398C67.055 16.9873 67.7083 16.656 68.483 16.404C69.155 16.208 69.9156 16.0353 70.765 15.886C71.6143 15.7367 72.5056 15.5967 73.439 15.466C74.3816 15.3353 75.315 15.2047 76.239 15.074L75.175 15.662C75.1936 14.4767 74.9416 13.5993 74.419 13.03C73.9056 12.4513 73.019 12.162 71.759 12.162C70.9656 12.162 70.2376 12.3487 69.575 12.722C68.9123 13.086 68.4503 13.6927 68.189 14.542L65.459 13.702C65.8323 12.4047 66.5416 11.3733 67.587 10.608C68.6416 9.84267 70.0416 9.46 71.787 9.46C73.1403 9.46 74.3163 9.69333 75.315 10.16C76.323 10.6173 77.0603 11.3453 77.527 12.344C77.7696 12.8387 77.919 13.3613 77.975 13.912C78.031 14.4627 78.059 15.0553 78.059 15.69V25H75.469V21.542L75.973 21.99C75.3476 23.1473 74.5496 24.0107 73.579 24.58C72.6176 25.14 71.4323 25.42 70.023 25.42ZM70.541 23.026C71.3716 23.026 72.0856 22.8813 72.683 22.592C73.2803 22.2933 73.761 21.9153 74.125 21.458C74.489 21.0007 74.727 20.5247 74.839 20.03C74.9976 19.582 75.0863 19.078 75.105 18.518C75.133 17.958 75.147 17.51 75.147 17.174L76.099 17.524C75.175 17.664 74.335 17.79 73.579 17.902C72.823 18.014 72.137 18.126 71.521 18.238C70.9143 18.3407 70.373 18.4667 69.897 18.616C69.4956 18.756 69.1363 18.924 68.819 19.12C68.511 19.316 68.2636 19.554 68.077 19.834C67.8996 20.114 67.811 20.4547 67.811 20.856C67.811 21.248 67.909 21.612 68.105 21.948C68.301 22.2747 68.5996 22.536 69.001 22.732C69.4023 22.928 69.9156 23.026 70.541 23.026ZM89.0024 25.42C87.5557 25.42 86.249 25.1727 85.0824 24.678C83.925 24.174 82.9684 23.46 82.2124 22.536C81.4657 21.6027 80.9804 20.4967 80.7564 19.218L83.8084 18.756C84.1164 19.988 84.7604 20.9493 85.7404 21.64C86.7204 22.3213 87.8637 22.662 89.1704 22.662C89.9824 22.662 90.729 22.536 91.4104 22.284C92.0917 22.0227 92.6377 21.654 93.0484 21.178C93.4684 20.6927 93.6784 20.114 93.6784 19.442C93.6784 19.078 93.613 18.756 93.4824 18.476C93.361 18.196 93.1884 17.9533 92.9644 17.748C92.7497 17.5333 92.4837 17.3513 92.1664 17.202C91.8584 17.0433 91.5177 16.908 91.1444 16.796L85.9784 15.27C85.4744 15.1207 84.961 14.9293 84.4384 14.696C83.9157 14.4533 83.435 14.1407 82.9964 13.758C82.567 13.366 82.217 12.8853 81.9464 12.316C81.6757 11.7373 81.5404 11.0373 81.5404 10.216C81.5404 8.97467 81.8577 7.92467 82.4924 7.066C83.1364 6.198 84.0044 5.54467 85.0964 5.106C86.1884 4.658 87.411 4.434 88.7644 4.434C90.127 4.45267 91.345 4.69533 92.4184 5.162C93.501 5.62867 94.397 6.30067 95.1064 7.178C95.825 8.046 96.3197 9.10067 96.5904 10.342L93.4544 10.874C93.3144 10.118 93.0157 9.46933 92.5584 8.928C92.101 8.37733 91.541 7.95733 90.8784 7.668C90.2157 7.36933 89.497 7.21533 88.7224 7.206C87.9757 7.18733 87.2897 7.29933 86.6644 7.542C86.0484 7.78467 85.5537 8.12533 85.1804 8.564C84.8164 9.00267 84.6344 9.50667 84.6344 10.076C84.6344 10.636 84.7977 11.0887 85.1244 11.434C85.451 11.7793 85.8524 12.0547 86.3284 12.26C86.8137 12.456 87.2944 12.6193 87.7704 12.75L91.4944 13.8C91.961 13.9307 92.4884 14.108 93.0764 14.332C93.6737 14.5467 94.2477 14.85 94.7984 15.242C95.3584 15.634 95.8204 16.1567 96.1844 16.81C96.5484 17.454 96.7304 18.266 96.7304 19.246C96.7304 20.2633 96.525 21.1593 96.1144 21.934C95.7037 22.6993 95.139 23.3433 94.4204 23.866C93.711 24.3793 92.8897 24.7667 91.9564 25.028C91.023 25.2893 90.0384 25.42 89.0024 25.42ZM106.182 25.42C104.633 25.42 103.317 25.0747 102.234 24.384C101.151 23.6933 100.321 22.746 99.7419 21.542C99.1726 20.338 98.8832 18.9707 98.8739 17.44C98.8832 15.8813 99.1819 14.5047 99.7699 13.31C100.358 12.106 101.198 11.1633 102.29 10.482C103.382 9.80067 104.693 9.46 106.224 9.46C107.876 9.46 109.285 9.87067 110.452 10.692C111.628 11.5133 112.403 12.638 112.776 14.066L109.864 14.906C109.575 14.0567 109.099 13.3987 108.436 12.932C107.783 12.456 107.031 12.218 106.182 12.218C105.221 12.218 104.432 12.4467 103.816 12.904C103.2 13.352 102.743 13.968 102.444 14.752C102.145 15.536 101.991 16.432 101.982 17.44C101.991 18.9987 102.346 20.2587 103.046 21.22C103.755 22.1813 104.801 22.662 106.182 22.662C107.125 22.662 107.885 22.4473 108.464 22.018C109.052 21.5793 109.5 20.954 109.808 20.142L112.776 20.842C112.281 22.3167 111.465 23.4507 110.326 24.244C109.187 25.028 107.806 25.42 106.182 25.42ZM121.784 25.42C120.272 25.42 118.96 25.0793 117.85 24.398C116.739 23.7167 115.88 22.7787 115.274 21.584C114.676 20.38 114.378 18.994 114.378 17.426C114.378 15.8487 114.686 14.4627 115.302 13.268C115.918 12.064 116.781 11.1307 117.892 10.468C119.002 9.796 120.3 9.46 121.784 9.46C123.296 9.46 124.607 9.80067 125.718 10.482C126.828 11.1633 127.687 12.1013 128.294 13.296C128.9 14.4907 129.204 15.8673 129.204 17.426C129.204 19.0033 128.896 20.394 128.28 21.598C127.673 22.7927 126.814 23.7307 125.704 24.412C124.593 25.084 123.286 25.42 121.784 25.42ZM121.784 22.662C123.23 22.662 124.308 22.1767 125.018 21.206C125.736 20.226 126.096 18.966 126.096 17.426C126.096 15.8487 125.732 14.5887 125.004 13.646C124.285 12.694 123.212 12.218 121.784 12.218C120.804 12.218 119.996 12.442 119.362 12.89C118.727 13.3287 118.256 13.94 117.948 14.724C117.64 15.4987 117.486 16.3993 117.486 17.426C117.486 19.0127 117.85 20.282 118.578 21.234C119.306 22.186 120.374 22.662 121.784 22.662ZM132.28 25V9.88H134.884V13.548L134.52 13.072C134.707 12.5867 134.95 12.1433 135.248 11.742C135.547 11.3313 135.892 10.9953 136.284 10.734C136.667 10.454 137.092 10.2393 137.558 10.09C138.034 9.93133 138.52 9.838 139.014 9.81C139.509 9.77267 139.985 9.796 140.442 9.88V12.624C139.948 12.4933 139.397 12.456 138.79 12.512C138.193 12.568 137.642 12.7593 137.138 13.086C136.662 13.394 136.284 13.7673 136.004 14.206C135.734 14.6447 135.538 15.1347 135.416 15.676C135.295 16.208 135.234 16.7727 135.234 17.37V25H132.28ZM149.541 25.42C148.038 25.42 146.718 25.0933 145.579 24.44C144.45 23.7773 143.568 22.858 142.933 21.682C142.308 20.4967 141.995 19.1247 141.995 17.566C141.995 15.914 142.303 14.4813 142.919 13.268C143.544 12.0547 144.412 11.1167 145.523 10.454C146.634 9.79133 147.926 9.46 149.401 9.46C150.941 9.46 152.252 9.81933 153.335 10.538C154.418 11.2473 155.225 12.26 155.757 13.576C156.298 14.892 156.513 16.4553 156.401 18.266H153.475V17.202C153.456 15.4473 153.12 14.15 152.467 13.31C151.823 12.47 150.838 12.05 149.513 12.05C148.048 12.05 146.946 12.512 146.209 13.436C145.472 14.36 145.103 15.6947 145.103 17.44C145.103 19.1013 145.472 20.3893 146.209 21.304C146.946 22.2093 148.01 22.662 149.401 22.662C150.316 22.662 151.104 22.4567 151.767 22.046C152.439 21.626 152.962 21.0287 153.335 20.254L156.205 21.164C155.617 22.5173 154.726 23.5673 153.531 24.314C152.336 25.0513 151.006 25.42 149.541 25.42ZM144.151 18.266V15.984H154.945V18.266H144.151Z" fill="black"/>
<path d="M28.56 25L28.2747 24.9073L28.1471 25.3H28.56V25ZM35.112 4.84V4.54H34.8941L34.8267 4.74727L35.112 4.84ZM39.326 4.84L39.6113 4.74727L39.5439 4.54H39.326V4.84ZM45.878 25V25.3H46.2909L46.1633 24.9073L45.878 25ZM42.84 25L42.5549 25.0935L42.6227 25.3H42.84V25ZM36.806 6.604V6.304H36.3919L36.5209 6.6975L36.806 6.604ZM37.562 6.604L37.8474 6.69652L37.9746 6.304H37.562V6.604ZM31.598 25V25.3H31.8161L31.8834 25.0925L31.598 25ZM31.962 20.45H31.662V20.75H31.962V20.45ZM31.962 17.706V17.406H31.662V17.706H31.962ZM42.49 17.706H42.79V17.406H42.49V17.706ZM42.49 20.45V20.75H42.79V20.45H42.49ZM28.56 25L28.8453 25.0927L35.3973 4.93272L35.112 4.84L34.8267 4.74727L28.2747 24.9073L28.56 25ZM35.112 4.84V5.14H39.326V4.84V4.54H35.112V4.84ZM39.326 4.84L39.0407 4.93272L45.5927 25.0927L45.878 25L46.1633 24.9073L39.6113 4.74727L39.326 4.84ZM45.878 25V24.7H42.84V25V25.3H45.878V25ZM42.84 25L43.1251 24.9065L37.0911 6.5105L36.806 6.604L36.5209 6.6975L42.5549 25.0935L42.84 25ZM36.806 6.604V6.904H37.562V6.604V6.304H36.806V6.604ZM37.562 6.604L37.2766 6.51148L31.3126 24.9075L31.598 25L31.8834 25.0925L37.8474 6.69652L37.562 6.604ZM31.598 25V24.7H28.56V25V25.3H31.598V25ZM31.962 20.45H32.262V17.706H31.962H31.662V20.45H31.962ZM31.962 17.706V18.006H42.49V17.706V17.406H31.962V17.706ZM42.49 17.706H42.19V20.45H42.49H42.79V17.706H42.49ZM42.49 20.45V20.15H31.962V20.45V20.75H42.49V20.45ZM48.6697 25H48.3697V25.3H48.6697V25ZM48.6697 4.42V4.12H48.3697V4.42H48.6697ZM51.5957 4.42H51.8957V4.12H51.5957V4.42ZM51.5957 25V25.3H51.8957V25H51.5957ZM48.6697 25H48.9697V4.42H48.6697H48.3697V25H48.6697ZM48.6697 4.42V4.72H51.5957V4.42V4.12H48.6697V4.42ZM51.5957 4.42H51.2957V25H51.5957H51.8957V4.42H51.5957ZM51.5957 25V24.7H48.6697V25V25.3H51.5957V25ZM57.1858 25H56.8858V25.3H57.1858V25ZM57.2278 8.13L57.5272 8.14952L57.5272 8.14911L57.2278 8.13ZM57.4658 6.842L57.1806 6.74898L57.1794 6.75288L57.4658 6.842ZM58.1518 5.666L57.9301 5.46394L57.9283 5.46596L58.1518 5.666ZM59.4118 4.77L59.5203 5.04971L59.5203 5.04971L59.4118 4.77ZM60.7698 4.462L60.7515 4.16256L60.7511 4.16258L60.7698 4.462ZM63.9338 4.42H64.2338V4.12H63.9338V4.42ZM63.9338 6.828V7.128H64.2338V6.828H63.9338ZM60.6158 7.346L60.828 7.55813V7.55813L60.6158 7.346ZM60.1118 25V25.3H60.4118V25H60.1118ZM54.6798 12.232H54.3798V12.532H54.6798V12.232ZM54.6798 9.88V9.58H54.3798V9.88H54.6798ZM63.9338 9.88H64.2338V9.58H63.9338V9.88ZM63.9338 12.232V12.532H64.2338V12.232H63.9338ZM57.1858 25H57.4858V9.348H57.1858H56.8858V25H57.1858ZM57.1858 9.348H57.4858C57.4858 8.97259 57.4996 8.57314 57.5272 8.14952L57.2278 8.13L56.9285 8.11048C56.9001 8.54552 56.8858 8.95808 56.8858 9.348H57.1858ZM57.2278 8.13L57.5272 8.14911C57.5537 7.73423 57.6287 7.32839 57.7523 6.93112L57.4658 6.842L57.1794 6.75288C57.0417 7.1956 56.958 7.64844 56.9285 8.11089L57.2278 8.13ZM57.4658 6.842L57.7511 6.93501C57.8775 6.54736 58.0843 6.19139 58.3754 5.86604L58.1518 5.666L57.9283 5.46596C57.5847 5.84994 57.3342 6.27798 57.1806 6.74899L57.4658 6.842ZM58.1518 5.666L58.3736 5.86805C58.73 5.47691 59.1126 5.2078 59.5203 5.04971L59.4118 4.77L59.3034 4.49029C58.7964 4.68687 58.3391 5.01508 57.9301 5.46395L58.1518 5.666ZM59.4118 4.77L59.5203 5.04971C59.9516 4.88248 60.374 4.78732 60.7886 4.76141L60.7698 4.462L60.7511 4.16258C60.2697 4.19267 59.7868 4.30285 59.3034 4.49029L59.4118 4.77ZM60.7698 4.462L60.7882 4.76144C61.2406 4.73374 61.6543 4.72 62.0298 4.72V4.42V4.12C61.64 4.12 61.2138 4.13426 60.7515 4.16256L60.7698 4.462ZM62.0298 4.42V4.72H63.9338V4.42V4.12H62.0298V4.42ZM63.9338 4.42H63.6338V6.828H63.9338H64.2338V4.42H63.9338ZM63.9338 6.828V6.528H62.1698V6.828V7.128H63.9338V6.828ZM62.1698 6.828V6.528C61.4329 6.528 60.8251 6.71243 60.4037 7.13387L60.6158 7.346L60.828 7.55813C61.0972 7.2889 61.5254 7.128 62.1698 7.128V6.828ZM60.6158 7.346L60.4037 7.13387C59.9954 7.54223 59.8118 8.1092 59.8118 8.788H60.1118H60.4118C60.4118 8.21614 60.5643 7.82177 60.828 7.55813L60.6158 7.346ZM60.1118 8.788H59.8118V25H60.1118H60.4118V8.788H60.1118ZM60.1118 25V24.7H57.1858V25V25.3H60.1118V25ZM54.6798 12.232H54.9798V9.88H54.6798H54.3798V12.232H54.6798ZM54.6798 9.88V10.18H63.9338V9.88V9.58H54.6798V9.88ZM63.9338 9.88H63.6338V12.232H63.9338H64.2338V9.88H63.9338ZM63.9338 12.232V11.932H54.6798V12.232V12.532H63.9338V12.232ZM67.209 24.804L67.0633 25.0663L67.0658 25.0676L67.209 24.804ZM65.487 23.152L65.2245 23.2974L65.2269 23.3016L65.487 23.152ZM65.319 18.868L65.0472 18.7409L65.319 18.868ZM66.523 17.398L66.7037 17.6375L66.7063 17.6355L66.523 17.398ZM68.483 16.404L68.3989 16.1159L68.3902 16.1187L68.483 16.404ZM70.765 15.886L70.8169 16.1815L70.765 15.886ZM73.439 15.466L73.3978 15.1688L73.3974 15.1689L73.439 15.466ZM76.239 15.074L76.3841 15.3366L76.197 14.777L76.239 15.074ZM75.175 15.662L74.875 15.6573L74.8669 16.175L75.3201 15.9246L75.175 15.662ZM74.419 13.03L74.1945 13.2291L74.198 13.2329L74.419 13.03ZM69.575 12.722L69.7194 12.985L69.7222 12.9834L69.575 12.722ZM68.189 14.542L68.1007 14.8287L68.3875 14.917L68.4757 14.6302L68.189 14.542ZM65.459 13.702L65.1707 13.619L65.0892 13.9021L65.3707 13.9887L65.459 13.702ZM67.587 10.608L67.4108 10.3652L67.4097 10.3659L67.587 10.608ZM75.315 10.16L75.188 10.4318L75.191 10.4332L75.315 10.16ZM77.527 12.344L77.2551 12.471L77.2576 12.4761L77.527 12.344ZM77.975 13.912L77.6765 13.9424V13.9424L77.975 13.912ZM78.059 25V25.3H78.359V25H78.059ZM75.469 25H75.169V25.3H75.469V25ZM75.469 21.542L75.6683 21.3178L75.169 20.8739V21.542H75.469ZM75.973 21.99L76.2369 22.1326L76.3498 21.9236L76.1723 21.7658L75.973 21.99ZM73.579 24.58L73.73 24.8392L73.7308 24.8388L73.579 24.58ZM72.683 22.592L72.8138 22.862L72.8171 22.8603L72.683 22.592ZM74.125 21.458L73.8902 21.2712L74.125 21.458ZM74.839 20.03L74.5562 19.9298L74.5503 19.9465L74.5464 19.9638L74.839 20.03ZM75.105 18.518L74.8053 18.503L74.8051 18.508L75.105 18.518ZM75.147 17.174L75.2505 16.8924L74.847 16.7441V17.174H75.147ZM76.099 17.524L76.1439 17.8206L76.2025 17.2424L76.099 17.524ZM73.579 17.902L73.6229 18.1988L73.579 17.902ZM71.521 18.238L71.571 18.5338L71.5746 18.5332L71.521 18.238ZM69.897 18.616L69.8071 18.3296L69.7982 18.3327L69.897 18.616ZM68.819 19.12L68.6613 18.8647L68.6579 18.8669L68.819 19.12ZM68.077 19.834L67.8273 19.6675L67.8235 19.6735L68.077 19.834ZM68.105 21.948L67.8458 22.0992L67.8477 22.1023L68.105 21.948ZM69.001 22.732L68.8693 23.0016L69.001 22.732ZM70.023 25.42V25.12C68.9383 25.12 68.0529 24.921 67.3522 24.5404L67.209 24.804L67.0658 25.0676C67.877 25.5083 68.8676 25.72 70.023 25.72V25.42ZM67.209 24.804L67.3547 24.5418C66.6414 24.1455 66.1091 23.6318 65.747 23.0024L65.487 23.152L65.2269 23.3016C65.6488 24.0348 66.2646 24.6225 67.0633 25.0662L67.209 24.804ZM65.487 23.152L65.7494 23.0066C65.3924 22.3623 65.213 21.6566 65.213 20.884H64.913H64.613C64.613 21.7541 64.8162 22.5604 65.2246 23.2974L65.487 23.152ZM64.913 20.884H65.213C65.213 20.154 65.342 19.5269 65.5907 18.9951L65.319 18.868L65.0472 18.7409C64.7546 19.3664 64.613 20.0833 64.613 20.884H64.913ZM65.319 18.868L65.5907 18.9951C65.8397 18.4627 66.209 18.0107 66.7036 17.6375L66.523 17.398L66.3423 17.1585C65.773 17.588 65.3395 18.116 65.0472 18.7409L65.319 18.868ZM66.523 17.398L66.7063 17.6355C67.206 17.2497 67.8271 16.9328 68.5758 16.6893L68.483 16.404L68.3902 16.1187C67.5895 16.3792 66.9039 16.7249 66.3397 17.1605L66.523 17.398ZM68.483 16.404L68.567 16.692C69.2263 16.4997 69.976 16.3293 70.8169 16.1815L70.765 15.886L70.713 15.5905C69.8552 15.7413 69.0836 15.9163 68.399 16.116L68.483 16.404ZM70.765 15.886L70.8169 16.1815C71.6625 16.0328 72.5504 15.8933 73.4806 15.7631L73.439 15.466L73.3974 15.1689C72.4609 15.3 71.5661 15.4405 70.713 15.5905L70.765 15.886ZM73.439 15.466L73.4802 15.7632C74.4231 15.6325 75.3567 15.5017 76.281 15.371L76.239 15.074L76.197 14.777C75.2732 14.9076 74.3402 15.0382 73.3978 15.1688L73.439 15.466ZM76.239 15.074L76.0939 14.8114L75.0299 15.3994L75.175 15.662L75.3201 15.9246L76.3841 15.3366L76.239 15.074ZM75.175 15.662L75.4749 15.6667C75.4942 14.4444 75.2363 13.4767 74.64 12.8271L74.419 13.03L74.198 13.2329C74.6469 13.7219 74.8931 14.5089 74.875 15.6573L75.175 15.662ZM74.419 13.03L74.6434 12.8309C74.0457 12.1572 73.0523 11.862 71.759 11.862V12.162V12.462C72.9857 12.462 73.7656 12.7455 74.1945 13.2291L74.419 13.03ZM71.759 12.162V11.862C70.9164 11.862 70.1373 12.0609 69.4277 12.4606L69.575 12.722L69.7222 12.9834C70.338 12.6365 71.0149 12.462 71.759 12.462V12.162ZM69.575 12.722L69.4305 12.4591C68.6877 12.8671 68.1822 13.5439 67.9022 14.4538L68.189 14.542L68.4757 14.6302C68.7184 13.8414 69.1369 13.3049 69.7194 12.9849L69.575 12.722ZM68.189 14.542L68.2772 14.2553L65.5472 13.4153L65.459 13.702L65.3707 13.9887L68.1007 14.8287L68.189 14.542ZM65.459 13.702L65.7473 13.785C66.1031 12.5486 66.7749 11.5744 67.7642 10.8501L67.587 10.608L67.4097 10.3659C66.3084 11.1723 65.5616 12.2607 65.1707 13.619L65.459 13.702ZM67.587 10.608L67.7632 10.8508C68.7518 10.1334 70.0837 9.76 71.787 9.76V9.46V9.16C69.9996 9.16 68.5315 9.55191 67.4108 10.3652L67.587 10.608ZM71.787 9.46V9.76C73.1062 9.76 74.2371 9.98744 75.188 10.4318L75.315 10.16L75.442 9.88821C74.3955 9.39923 73.1744 9.16 71.787 9.16V9.46ZM75.315 10.16L75.191 10.4332C76.1342 10.8611 76.8189 11.5374 77.2552 12.471L77.527 12.344L77.7988 12.217C77.3017 11.1532 76.5118 10.3736 75.4389 9.8868L75.315 10.16ZM77.527 12.344L77.2576 12.4761C77.4846 12.9387 77.6241 13.4269 77.6765 13.9424L77.975 13.912L78.2734 13.8816C78.2138 13.2958 78.0547 12.7386 77.7963 12.2119L77.527 12.344ZM77.975 13.912L77.6765 13.9424C77.7313 14.4816 77.759 15.064 77.759 15.69H78.059H78.359C78.359 15.0466 78.3306 14.4437 78.2734 13.8816L77.975 13.912ZM78.059 15.69H77.759V25H78.059H78.359V15.69H78.059ZM78.059 25V24.7H75.469V25V25.3H78.059V25ZM75.469 25H75.769V21.542H75.469H75.169V25H75.469ZM75.469 21.542L75.2697 21.7662L75.7737 22.2142L75.973 21.99L76.1723 21.7658L75.6683 21.3178L75.469 21.542ZM75.973 21.99L75.709 21.8474C75.1053 22.9647 74.3431 23.784 73.4272 24.3212L73.579 24.58L73.7308 24.8388C74.7562 24.2373 75.59 23.3299 76.2369 22.1326L75.973 21.99ZM73.579 24.58L73.428 24.3208C72.5232 24.8478 71.3932 25.12 70.023 25.12V25.42V25.72C71.4714 25.72 72.7121 25.4322 73.73 24.8392L73.579 24.58ZM70.541 23.026V23.326C71.4058 23.326 72.1667 23.1754 72.8137 22.862L72.683 22.592L72.5522 22.322C72.0046 22.5873 71.3374 22.726 70.541 22.726V23.026ZM72.683 22.592L72.8171 22.8603C73.448 22.5449 73.9649 22.1409 74.3597 21.6448L74.125 21.458L73.8902 21.2712C73.5571 21.6898 73.1127 22.0417 72.5488 22.3237L72.683 22.592ZM74.125 21.458L74.3597 21.6448C74.7475 21.1575 75.0082 20.6412 75.1316 20.0962L74.839 20.03L74.5464 19.9638C74.4458 20.4081 74.2304 20.8438 73.8902 21.2712L74.125 21.458ZM74.839 20.03L75.1218 20.1302C75.2923 19.6485 75.3853 19.1134 75.4048 18.528L75.105 18.518L74.8051 18.508C74.7873 19.0426 74.7029 19.5155 74.5562 19.9298L74.839 20.03ZM75.105 18.518L75.4046 18.533C75.4327 17.9708 75.447 17.5172 75.447 17.174H75.147H74.847C74.847 17.5028 74.8332 17.9452 74.8053 18.503L75.105 18.518ZM75.147 17.174L75.0434 17.4556L75.9954 17.8056L76.099 17.524L76.2025 17.2424L75.2505 16.8924L75.147 17.174ZM76.099 17.524L76.054 17.2274C75.1303 17.3673 74.2906 17.4933 73.535 17.6052L73.579 17.902L73.6229 18.1988C74.3793 18.0867 75.2197 17.9607 76.1439 17.8206L76.099 17.524ZM73.579 17.902L73.535 17.6052C72.7764 17.7176 72.0871 17.8301 71.4673 17.9428L71.521 18.238L71.5746 18.5332C72.1868 18.4219 72.8695 18.3104 73.6229 18.1988L73.579 17.902ZM71.521 18.238L71.4709 17.9422C70.8538 18.0466 70.2988 18.1755 69.8072 18.3298L69.897 18.616L69.9868 18.9022C70.4472 18.7578 70.9748 18.6347 71.571 18.5338L71.521 18.238ZM69.897 18.616L69.7982 18.3327C69.379 18.4789 68.9995 18.6559 68.6613 18.8648L68.819 19.12L68.9766 19.3752C69.2731 19.1921 69.6122 19.0331 69.9958 18.8993L69.897 18.616ZM68.819 19.12L68.6579 18.8669C68.3177 19.0834 68.0391 19.35 67.8274 19.6676L68.077 19.834L68.3266 20.0004C68.4882 19.758 68.7042 19.5486 68.98 19.3731L68.819 19.12ZM68.077 19.834L67.8235 19.6735C67.6099 20.0108 67.511 20.4099 67.511 20.856H67.811H68.111C68.111 20.4994 68.1894 20.2172 68.3304 19.9945L68.077 19.834ZM67.811 20.856H67.511C67.511 21.3007 67.6229 21.7169 67.8458 22.0992L68.105 21.948L68.3641 21.7968C68.1951 21.5071 68.111 21.1953 68.111 20.856H67.811ZM68.105 21.948L67.8477 22.1023C68.0784 22.4868 68.425 22.7846 68.8693 23.0016L69.001 22.732L69.1326 22.4624C68.7743 22.2874 68.5235 22.0625 68.3622 21.7937L68.105 21.948ZM69.001 22.732L68.8693 23.0016C69.3247 23.224 69.8871 23.326 70.541 23.326V23.026V22.726C69.9441 22.726 69.4799 22.632 69.1326 22.4624L69.001 22.732ZM85.0824 24.678L84.9626 24.9531L84.9653 24.9542L85.0824 24.678ZM82.2124 22.536L81.9781 22.7234L81.9802 22.726L82.2124 22.536ZM80.7564 19.218L80.7115 18.9214L80.4079 18.9673L80.4609 19.2698L80.7564 19.218ZM83.8084 18.756L84.0994 18.6832L84.0332 18.4185L83.7635 18.4594L83.8084 18.756ZM85.7404 21.64L85.5676 21.8852L85.5691 21.8863L85.7404 21.64ZM91.4104 22.284L91.5145 22.5654L91.5178 22.5641L91.4104 22.284ZM93.0484 21.178L92.8215 20.9817L92.8212 20.982L93.0484 21.178ZM93.4824 18.476L93.207 18.5953L93.2105 18.6029L93.4824 18.476ZM92.9644 17.748L92.752 17.9603L92.7617 17.9691L92.9644 17.748ZM92.1664 17.202L92.0289 17.4689L92.0386 17.4734L92.1664 17.202ZM91.1444 16.796L91.2306 16.5086L91.2294 16.5083L91.1444 16.796ZM85.9784 15.27L85.8932 15.5576L85.8934 15.5577L85.9784 15.27ZM84.4384 14.696L84.312 14.9681L84.3161 14.9699L84.4384 14.696ZM82.9964 13.758L82.794 13.9796L82.7992 13.9841L82.9964 13.758ZM81.9464 12.316L81.6746 12.4431L81.6754 12.4448L81.9464 12.316ZM82.4924 7.066L82.2514 6.88725L82.2511 6.88768L82.4924 7.066ZM85.0964 5.106L85.2082 5.38438L85.2102 5.38355L85.0964 5.106ZM88.7644 4.434L88.7685 4.134H88.7644V4.434ZM92.4184 5.162L92.2988 5.43712L92.2996 5.4375L92.4184 5.162ZM95.1064 7.178L94.8731 7.36663L94.8753 7.36932L95.1064 7.178ZM96.5904 10.342L96.6406 10.6378L96.9505 10.5852L96.8835 10.2781L96.5904 10.342ZM93.4544 10.874L93.1594 10.9286L93.2132 11.2192L93.5046 11.1698L93.4544 10.874ZM92.5584 8.928L92.3276 9.11968L92.3292 9.12161L92.5584 8.928ZM90.8784 7.668L90.7551 7.94152L90.7583 7.94294L90.8784 7.668ZM88.7224 7.206L88.7149 7.50593L88.7188 7.50598L88.7224 7.206ZM86.6644 7.542L86.5558 7.26232L86.5544 7.26288L86.6644 7.542ZM85.1804 8.564L84.9519 8.36955L84.9495 8.37243L85.1804 8.564ZM86.3284 12.26L86.2095 12.5355L86.216 12.5382L86.3284 12.26ZM87.7704 12.75L87.8518 12.4613L87.8498 12.4607L87.7704 12.75ZM91.4944 13.8L91.413 14.0887L91.4135 14.0889L91.4944 13.8ZM93.0764 14.332L92.9696 14.6124L92.9749 14.6143L93.0764 14.332ZM94.7984 15.242L94.6244 15.4864L94.6263 15.4878L94.7984 15.242ZM96.1844 16.81L95.9223 16.956L95.9232 16.9576L96.1844 16.81ZM96.1144 21.934L96.3787 22.0758L96.3794 22.0745L96.1144 21.934ZM94.4204 23.866L94.5963 24.109L94.5968 24.1086L94.4204 23.866ZM91.9564 25.028L91.8755 24.7391H91.8755L91.9564 25.028ZM89.0024 25.42V25.12C87.5903 25.12 86.3242 24.8787 85.1995 24.4018L85.0824 24.678L84.9653 24.9542C86.1739 25.4666 87.5211 25.72 89.0024 25.72V25.42ZM85.0824 24.678L85.2022 24.403C84.0859 23.9169 83.1687 23.231 82.4446 22.346L82.2124 22.536L81.9802 22.726C82.7681 23.689 83.7641 24.4311 84.9626 24.9531L85.0824 24.678ZM82.2124 22.536L82.4466 22.3486C81.7341 21.4579 81.2679 20.3996 81.0519 19.1662L80.7564 19.218L80.4609 19.2698C80.6928 20.5937 81.1973 21.7474 81.9781 22.7234L82.2124 22.536ZM80.7564 19.218L80.8013 19.5146L83.8533 19.0526L83.8084 18.756L83.7635 18.4594L80.7115 18.9214L80.7564 19.218ZM83.8084 18.756L83.5173 18.8288C83.8417 20.1261 84.5251 21.1505 85.5676 21.8852L85.7404 21.64L85.9132 21.3948C84.9957 20.7482 84.3911 19.8499 84.0994 18.6832L83.8084 18.756ZM85.7404 21.64L85.5691 21.8863C86.6042 22.6059 87.8086 22.962 89.1704 22.962V22.662V22.362C87.9189 22.362 86.8366 22.0367 85.9116 21.3937L85.7404 21.64ZM89.1704 22.662V22.962C90.0137 22.962 90.7961 22.8311 91.5144 22.5654L91.4104 22.284L91.3063 22.0026C90.662 22.2409 89.951 22.362 89.1704 22.362V22.662ZM91.4104 22.284L91.5178 22.5641C92.2379 22.2879 92.8277 21.8931 93.2755 21.374L93.0484 21.178L92.8212 20.982C92.4478 21.4149 91.9455 21.7574 91.3029 22.0039L91.4104 22.284ZM93.0484 21.178L93.2752 21.3743C93.7448 20.8317 93.9784 20.1824 93.9784 19.442H93.6784H93.3784C93.3784 20.0456 93.192 20.5536 92.8215 20.9817L93.0484 21.178ZM93.6784 19.442H93.9784C93.9784 19.0419 93.9064 18.6753 93.7542 18.3491L93.4824 18.476L93.2105 18.6029C93.3196 18.8367 93.3784 19.1141 93.3784 19.442H93.6784ZM93.4824 18.476L93.7576 18.3567C93.6196 18.0382 93.4223 17.7608 93.1671 17.5269L92.9644 17.748L92.7617 17.9691C92.9545 18.1459 93.1025 18.3538 93.2071 18.5953L93.4824 18.476ZM92.9644 17.748L93.1765 17.5359C92.9339 17.2932 92.638 17.0924 92.2941 16.9306L92.1664 17.202L92.0386 17.4734C92.3294 17.6103 92.5656 17.7734 92.7522 17.9601L92.9644 17.748ZM92.1664 17.202L92.3038 16.9353C91.9775 16.7672 91.6194 16.6253 91.2306 16.5087L91.1444 16.796L91.0582 17.0833C91.416 17.1907 91.7393 17.3194 92.029 17.4687L92.1664 17.202ZM91.1444 16.796L91.2294 16.5083L86.0634 14.9823L85.9784 15.27L85.8934 15.5577L91.0594 17.0837L91.1444 16.796ZM85.9784 15.27L86.0636 14.9824C85.5733 14.8371 85.0723 14.6505 84.5607 14.4221L84.4384 14.696L84.3161 14.9699C84.8497 15.2082 85.3754 15.4042 85.8932 15.5576L85.9784 15.27ZM84.4384 14.696L84.5647 14.4239C84.068 14.1933 83.6111 13.8962 83.1936 13.5319L82.9964 13.758L82.7992 13.9841C83.2589 14.3852 83.7634 14.7134 84.312 14.9681L84.4384 14.696ZM82.9964 13.758L83.1987 13.5365C82.8003 13.1728 82.4727 12.7244 82.2173 12.1872L81.9464 12.316L81.6754 12.4448C81.9614 13.0462 82.3338 13.5592 82.7941 13.9795L82.9964 13.758ZM81.9464 12.316L82.2181 12.1889C81.9706 11.6597 81.8404 11.0055 81.8404 10.216H81.5404H81.2404C81.2404 11.0692 81.3808 11.815 81.6746 12.4431L81.9464 12.316ZM81.5404 10.216H81.8404C81.8404 9.02804 82.1431 8.04329 82.7336 7.24432L82.4924 7.066L82.2511 6.88768C81.5723 7.80604 81.2404 8.92129 81.2404 10.216H81.5404ZM82.4924 7.066L82.7333 7.24475C83.3414 6.42517 84.1629 5.80429 85.2082 5.38438L85.0964 5.106L84.9845 4.82762C83.8459 5.28504 82.9314 5.97083 82.2514 6.88725L82.4924 7.066ZM85.0964 5.106L85.2102 5.38355C86.2612 4.95238 87.4444 4.734 88.7644 4.734V4.434V4.134C87.3777 4.134 86.1155 4.36361 84.9825 4.82845L85.0964 5.106ZM88.7644 4.434L88.7603 4.73397C90.0896 4.75218 91.2674 4.9887 92.2988 5.43712L92.4184 5.162L92.538 4.88688C91.4227 4.40197 90.1645 4.15315 88.7685 4.13403L88.7644 4.434ZM92.4184 5.162L92.2996 5.4375C93.3397 5.88581 94.1957 6.52882 94.8731 7.36662L95.1064 7.178L95.3397 6.98938C94.5984 6.07251 93.6624 5.37152 92.5371 4.8865L92.4184 5.162ZM95.1064 7.178L94.8753 7.36932C95.5597 8.19594 96.0355 9.20536 96.2973 10.4059L96.5904 10.342L96.8835 10.2781C96.6039 8.99597 96.0904 7.89606 95.3374 6.98668L95.1064 7.178ZM96.5904 10.342L96.5402 10.0462L93.4042 10.5782L93.4544 10.874L93.5046 11.1698L96.6406 10.6378L96.5904 10.342ZM93.4544 10.874L93.7494 10.8194C93.6007 10.0166 93.2813 9.31889 92.7875 8.73439L92.5584 8.928L92.3292 9.12161C92.7501 9.61977 93.0281 10.2194 93.1594 10.9286L93.4544 10.874ZM92.5584 8.928L92.7892 8.73633C92.3016 8.14927 91.7035 7.70093 90.9984 7.39306L90.8784 7.668L90.7583 7.94294C91.3785 8.21373 91.9005 8.6054 92.3276 9.11967L92.5584 8.928ZM90.8784 7.668L91.0016 7.3945C90.2989 7.07777 89.5392 6.91582 88.726 6.90602L88.7224 7.206L88.7188 7.50598C89.4549 7.51485 90.1325 7.6609 90.7551 7.9415L90.8784 7.668ZM88.7224 7.206L88.7299 6.90609C87.9481 6.88655 87.2221 7.00377 86.5558 7.26232L86.6644 7.542L86.7729 7.82168C87.3573 7.5949 88.0033 7.48812 88.7149 7.50591L88.7224 7.206ZM86.6644 7.542L86.5544 7.26288C85.8995 7.52089 85.3617 7.88809 84.9519 8.36956L85.1804 8.564L85.4088 8.75844C85.7457 8.36257 86.1973 8.04844 86.7743 7.82112L86.6644 7.542ZM85.1804 8.564L84.9495 8.37243C84.5409 8.86486 84.3344 9.43661 84.3344 10.076H84.6344H84.9344C84.9344 9.57672 85.0919 9.14047 85.4112 8.75557L85.1804 8.564ZM84.6344 10.076H84.3344C84.3344 10.6981 84.5178 11.2294 84.9064 11.6402L85.1244 11.434L85.3423 11.2278C85.0776 10.948 84.9344 10.5739 84.9344 10.076H84.6344ZM85.1244 11.434L84.9064 11.6402C85.2635 12.0177 85.6996 12.3155 86.2095 12.5355L86.3284 12.26L86.4472 11.9845C86.0052 11.7939 85.6385 11.541 85.3423 11.2278L85.1244 11.434ZM86.3284 12.26L86.216 12.5382C86.7115 12.7383 87.2031 12.9054 87.691 13.0393L87.7704 12.75L87.8498 12.4607C87.3856 12.3333 86.9159 12.1737 86.4407 11.9818L86.3284 12.26ZM87.7704 12.75L87.689 13.0387L91.413 14.0887L91.4944 13.8L91.5758 13.5113L87.8518 12.4613L87.7704 12.75ZM91.4944 13.8L91.4135 14.0889C91.8693 14.2165 92.3877 14.3907 92.9696 14.6123L93.0764 14.332L93.1832 14.0517C92.589 13.8253 92.0528 13.6448 91.5753 13.5111L91.4944 13.8ZM93.0764 14.332L92.9749 14.6143C93.5448 14.8191 94.0946 15.1093 94.6244 15.4864L94.7984 15.242L94.9724 14.9976C94.4008 14.5907 93.8026 14.2742 93.1778 14.0497L93.0764 14.332ZM94.7984 15.242L94.6263 15.4878C95.1458 15.8514 95.5783 16.3385 95.9223 16.956L96.1844 16.81L96.4464 16.664C96.0625 15.9748 95.571 15.4166 94.9704 14.9962L94.7984 15.242ZM96.1844 16.81L95.9232 16.9576C96.2548 17.5443 96.4304 18.3015 96.4304 19.246H96.7304H97.0304C97.0304 18.2305 96.8419 17.3637 96.4455 16.6624L96.1844 16.81ZM96.7304 19.246H96.4304C96.4304 20.2222 96.2336 21.0686 95.8493 21.7935L96.1144 21.934L96.3794 22.0745C96.8165 21.2501 97.0304 20.3044 97.0304 19.246H96.7304ZM96.1144 21.934L95.85 21.7922C95.4612 22.5168 94.927 23.1266 94.2439 23.6234L94.4204 23.866L94.5968 24.1086C95.3511 23.56 95.9462 22.8819 96.3787 22.0758L96.1144 21.934ZM94.4204 23.866L94.2445 23.623C93.5668 24.1134 92.7783 24.4863 91.8755 24.7391L91.9564 25.028L92.0373 25.3169C93.0011 25.047 93.8553 24.6452 94.5963 24.109L94.4204 23.866ZM91.9564 25.028L91.8755 24.7391C90.9702 24.9926 90.0129 25.12 89.0024 25.12V25.42V25.72C90.0638 25.72 91.0759 25.5861 92.0373 25.3169L91.9564 25.028ZM102.234 24.384L102.395 24.1311L102.234 24.384ZM99.7419 21.542L99.4707 21.6702L99.4715 21.672L99.7419 21.542ZM98.8739 17.44L98.5739 17.4382L98.5739 17.4418L98.8739 17.44ZM99.7699 13.31L100.039 13.4425L100.039 13.4417L99.7699 13.31ZM102.29 10.482L102.131 10.2275L102.29 10.482ZM110.452 10.692L110.279 10.9373L110.28 10.938L110.452 10.692ZM112.776 14.066L112.859 14.3542L113.14 14.2732L113.066 13.9901L112.776 14.066ZM109.864 14.906L109.58 15.0027L109.672 15.2735L109.947 15.1942L109.864 14.906ZM108.436 12.932L108.259 13.1745L108.263 13.1773L108.436 12.932ZM103.816 12.904L103.992 13.1466L103.995 13.1449L103.816 12.904ZM102.444 14.752L102.164 14.6452L102.444 14.752ZM101.982 17.44L101.682 17.4372L101.682 17.4418L101.982 17.44ZM103.046 21.22L102.803 21.3966L102.805 21.3981L103.046 21.22ZM108.464 22.018L108.643 22.2589L108.643 22.2585L108.464 22.018ZM109.808 20.142L109.877 19.85L109.621 19.7896L109.527 20.0356L109.808 20.142ZM112.776 20.842L113.06 20.9374L113.165 20.6255L112.845 20.55L112.776 20.842ZM110.326 24.244L110.496 24.4911L110.497 24.4901L110.326 24.244ZM106.182 25.42V25.12C104.678 25.12 103.421 24.7852 102.395 24.1311L102.234 24.384L102.073 24.6369C103.213 25.3642 104.587 25.72 106.182 25.72V25.42ZM102.234 24.384L102.395 24.1311C101.362 23.4717 100.568 22.5678 100.012 21.412L99.7419 21.542L99.4715 21.672C100.073 22.9242 100.941 23.915 102.073 24.6369L102.234 24.384ZM99.7419 21.542L100.013 21.4138C99.4651 20.2548 99.183 18.9316 99.1739 17.4382L98.8739 17.44L98.5739 17.4418C98.5835 19.0097 98.8801 20.4212 99.4707 21.6702L99.7419 21.542ZM98.8739 17.44L99.1739 17.4418C99.183 15.9208 99.4742 14.5901 100.039 13.4425L99.7699 13.31L99.5007 13.1775C98.8896 14.4192 98.5835 15.8419 98.5739 17.4382L98.8739 17.44ZM99.7699 13.31L100.039 13.4417C100.604 12.286 101.406 11.3868 102.449 10.7365L102.29 10.482L102.131 10.2275C100.989 10.9398 100.112 11.926 99.5003 13.1783L99.7699 13.31ZM102.29 10.482L102.449 10.7365C103.485 10.0901 104.739 9.76 106.224 9.76V9.46V9.16C104.648 9.16 103.279 9.51121 102.131 10.2275L102.29 10.482ZM106.224 9.46V9.76C107.824 9.76 109.171 10.157 110.279 10.9373L110.452 10.692L110.625 10.4467C109.4 9.58438 107.928 9.16 106.224 9.16V9.46ZM110.452 10.692L110.28 10.938C111.396 11.7172 112.13 12.7807 112.486 14.1419L112.776 14.066L113.066 13.9901C112.675 12.4953 111.86 11.3095 110.624 10.446L110.452 10.692ZM112.776 14.066L112.693 13.7778L109.781 14.6178L109.864 14.906L109.947 15.1942L112.859 14.3542L112.776 14.066ZM109.864 14.906L110.148 14.8093C109.84 13.9066 109.329 13.1938 108.609 12.6867L108.436 12.932L108.263 13.1773C108.868 13.6035 109.309 14.2067 109.58 15.0027L109.864 14.906ZM108.436 12.932L108.613 12.6895C107.905 12.1742 107.091 11.918 106.182 11.918V12.218V12.518C106.971 12.518 107.66 12.7378 108.259 13.1745L108.436 12.932ZM106.182 12.218V11.918C105.173 11.918 104.317 12.1586 103.637 12.6631L103.816 12.904L103.995 13.1449C104.547 12.7347 105.268 12.518 106.182 12.518V12.218ZM103.816 12.904L103.639 12.6614C102.972 13.1471 102.481 13.8125 102.164 14.6452L102.444 14.752L102.724 14.8588C103.004 14.1235 103.428 13.5569 103.992 13.1466L103.816 12.904ZM102.444 14.752L102.164 14.6452C101.85 15.4684 101.692 16.4006 101.682 17.4372L101.982 17.44L102.282 17.4428C102.291 16.4634 102.441 15.6036 102.724 14.8588L102.444 14.752ZM101.982 17.44L101.682 17.4418C101.692 19.0439 102.056 20.3707 102.803 21.3966L103.046 21.22L103.288 21.0434C102.635 20.1466 102.291 18.9534 102.282 17.4382L101.982 17.44ZM103.046 21.22L102.805 21.3981C103.58 22.4488 104.722 22.962 106.182 22.962V22.662V22.362C104.879 22.362 103.931 21.9139 103.287 21.0419L103.046 21.22ZM106.182 22.662V22.962C107.169 22.962 107.998 22.737 108.643 22.2589L108.464 22.018L108.285 21.7771C107.772 22.1577 107.08 22.362 106.182 22.362V22.662ZM108.464 22.018L108.643 22.2585C109.285 21.7798 109.764 21.1038 110.088 20.2484L109.808 20.142L109.527 20.0356C109.236 20.8042 108.819 21.3789 108.285 21.7775L108.464 22.018ZM109.808 20.142L109.739 20.434L112.707 21.134L112.776 20.842L112.845 20.55L109.877 19.85L109.808 20.142ZM112.776 20.842L112.491 20.7466C112.015 22.1679 111.234 23.2457 110.154 23.9979L110.326 24.244L110.497 24.4901C111.695 23.6556 112.548 22.4654 113.06 20.9374L112.776 20.842ZM110.326 24.244L110.156 23.9969C109.075 24.7408 107.756 25.12 106.182 25.12V25.42V25.72C107.856 25.72 109.299 25.3152 110.496 24.4911L110.326 24.244ZM117.85 24.398L117.693 24.6537L117.85 24.398ZM115.274 21.584L115.005 21.7173L115.006 21.7198L115.274 21.584ZM115.302 13.268L115.568 13.4055L115.569 13.4046L115.302 13.268ZM117.892 10.468L118.046 10.7256L118.047 10.7247L117.892 10.468ZM125.718 10.482L125.875 10.2263L125.718 10.482ZM128.294 13.296L128.026 13.4318L128.294 13.296ZM128.28 21.598L128.013 21.4614L128.012 21.4622L128.28 21.598ZM125.704 24.412L125.859 24.6687L125.861 24.6677L125.704 24.412ZM125.018 21.206L124.776 21.0286L124.776 21.029L125.018 21.206ZM125.004 13.646L124.764 13.8268L124.766 13.8294L125.004 13.646ZM119.362 12.89L119.532 13.1368L119.535 13.1351L119.362 12.89ZM117.948 14.724L118.227 14.8348L118.227 14.8337L117.948 14.724ZM118.578 21.234L118.816 21.0518L118.578 21.234ZM121.784 25.42V25.12C120.318 25.12 119.063 24.7903 118.007 24.1423L117.85 24.398L117.693 24.6537C118.858 25.3684 120.225 25.72 121.784 25.72V25.42ZM117.85 24.398L118.007 24.1423C116.945 23.4908 116.124 22.5949 115.541 21.4482L115.274 21.584L115.006 21.7198C115.637 22.9624 116.534 23.9426 117.693 24.6537L117.85 24.398ZM115.274 21.584L115.543 21.4507C114.969 20.2945 114.678 18.9554 114.678 17.426H114.378H114.078C114.078 19.0326 114.384 20.4655 115.005 21.7173L115.274 21.584ZM114.378 17.426H114.678C114.678 15.8882 114.978 14.5508 115.568 13.4055L115.302 13.268L115.035 13.1305C114.394 14.3745 114.078 15.8091 114.078 17.426H114.378ZM115.302 13.268L115.569 13.4046C116.16 12.2484 116.986 11.3581 118.046 10.7256L117.892 10.468L117.738 10.2104C116.577 10.9033 115.675 11.8796 115.035 13.1314L115.302 13.268ZM117.892 10.468L118.047 10.7247C119.105 10.0849 120.347 9.76 121.784 9.76V9.46V9.16C120.253 9.16 118.9 9.50711 117.737 10.2113L117.892 10.468ZM121.784 9.46V9.76C123.249 9.76 124.505 10.0897 125.561 10.7377L125.718 10.482L125.875 10.2263C124.71 9.51161 123.342 9.16 121.784 9.16V9.46ZM125.718 10.482L125.561 10.7377C126.623 11.3892 127.444 12.2851 128.026 13.4318L128.294 13.296L128.561 13.1602C127.93 11.9176 127.034 10.9374 125.875 10.2263L125.718 10.482ZM128.294 13.296L128.026 13.4318C128.608 14.578 128.904 15.9068 128.904 17.426H129.204H129.504C129.504 15.8278 129.193 14.4033 128.561 13.1602L128.294 13.296ZM129.204 17.426H128.904C128.904 18.9637 128.604 20.3062 128.013 21.4614L128.28 21.598L128.547 21.7346C129.188 20.4818 129.504 19.0429 129.504 17.426H129.204ZM128.28 21.598L128.012 21.4622C127.43 22.6089 126.609 23.5048 125.547 24.1563L125.704 24.412L125.861 24.6677C127.02 23.9566 127.916 22.9764 128.547 21.7338L128.28 21.598ZM125.704 24.412L125.549 24.1553C124.492 24.7948 123.24 25.12 121.784 25.12V25.42V25.72C123.332 25.72 124.695 25.3732 125.859 24.6687L125.704 24.412ZM121.784 22.662V22.962C123.304 22.962 124.482 22.4471 125.26 21.383L125.018 21.206L124.776 21.029C124.135 21.9062 123.157 22.362 121.784 22.362V22.662ZM125.018 21.206L125.26 21.3834C126.025 20.3396 126.396 19.0126 126.396 17.426H126.096H125.796C125.796 18.9194 125.448 20.1124 124.776 21.0286L125.018 21.206ZM126.096 17.426H126.396C126.396 15.8038 126.021 14.4726 125.241 13.4626L125.004 13.646L124.766 13.8294C125.442 14.7047 125.796 15.8935 125.796 17.426H126.096ZM125.004 13.646L125.243 13.4652C124.456 12.4229 123.285 11.918 121.784 11.918V12.218V12.518C123.139 12.518 124.114 12.9651 124.764 13.8267L125.004 13.646ZM121.784 12.218V11.918C120.758 11.918 119.886 12.1528 119.189 12.6449L119.362 12.89L119.535 13.1351C120.107 12.7312 120.849 12.518 121.784 12.518V12.218ZM119.362 12.89L119.191 12.6432C118.503 13.1189 117.996 13.7801 117.669 14.6143L117.948 14.724L118.227 14.8337C118.515 14.0999 118.951 13.5385 119.532 13.1368L119.362 12.89ZM117.948 14.724L117.669 14.6132C117.344 15.4302 117.186 16.3699 117.186 17.426H117.486H117.786C117.786 16.4288 117.935 15.5671 118.227 14.8348L117.948 14.724ZM117.486 17.426H117.186C117.186 19.0572 117.56 20.3972 118.34 21.4162L118.578 21.234L118.816 21.0518C118.139 20.1668 117.786 18.9681 117.786 17.426H117.486ZM118.578 21.234L118.34 21.4162C119.135 22.456 120.3 22.962 121.784 22.962V22.662V22.362C120.449 22.362 119.477 21.916 118.816 21.0518L118.578 21.234ZM132.28 25H131.98V25.3H132.28V25ZM132.28 9.88V9.58H131.98V9.88H132.28ZM134.884 9.88H135.184V9.58H134.884V9.88ZM134.884 13.548L134.646 13.7302L135.184 14.4342V13.548H134.884ZM134.52 13.072L134.24 12.9643L134.18 13.1209L134.282 13.2542L134.52 13.072ZM135.248 11.742L135.489 11.9211L135.491 11.9185L135.248 11.742ZM136.284 10.734L136.451 10.9839L136.461 10.9761L136.284 10.734ZM137.558 10.09L137.65 10.3757L137.653 10.3746L137.558 10.09ZM139.014 9.81L139.031 10.1096L139.037 10.1091L139.014 9.81ZM140.442 9.88H140.742V9.63008L140.497 9.58494L140.442 9.88ZM140.442 12.624L140.366 12.9141L140.742 13.0135V12.624H140.442ZM138.79 12.512L138.763 12.2133L138.762 12.2133L138.79 12.512ZM137.138 13.086L137.301 13.3379L137.301 13.3377L137.138 13.086ZM136.004 14.206L135.751 14.0446L135.749 14.0485L136.004 14.206ZM135.416 15.676L135.709 15.7427L135.709 15.7416L135.416 15.676ZM135.234 25V25.3H135.534V25H135.234ZM132.28 25H132.58V9.88H132.28H131.98V25H132.28ZM132.28 9.88V10.18H134.884V9.88V9.58H132.28V9.88ZM134.884 9.88H134.584V13.548H134.884H135.184V9.88H134.884ZM134.884 13.548L135.123 13.3658L134.759 12.8898L134.52 13.072L134.282 13.2542L134.646 13.7302L134.884 13.548ZM134.52 13.072L134.8 13.1797C134.978 12.7188 135.207 12.2997 135.489 11.9211L135.248 11.742L135.008 11.5629C134.692 11.987 134.436 12.4545 134.24 12.9643L134.52 13.072ZM135.248 11.742L135.491 11.9185C135.77 11.5342 136.09 11.2238 136.451 10.9836L136.284 10.734L136.118 10.4844C135.694 10.7669 135.324 11.1284 135.006 11.5655L135.248 11.742ZM136.284 10.734L136.461 10.9761C136.817 10.7158 137.213 10.5156 137.65 10.3757L137.558 10.09L137.467 9.80427C136.971 9.96311 136.517 10.1922 136.107 10.4919L136.284 10.734ZM137.558 10.09L137.653 10.3746C138.104 10.2242 138.563 10.136 139.031 10.1095L139.014 9.81L138.997 9.51048C138.476 9.54 137.964 9.63844 137.463 9.80539L137.558 10.09ZM139.014 9.81L139.037 10.1091C139.508 10.0736 139.958 10.096 140.388 10.1751L140.442 9.88L140.497 9.58494C140.012 9.49599 139.51 9.47171 138.992 9.51085L139.014 9.81ZM140.442 9.88H140.142V12.624H140.442H140.742V9.88H140.442ZM140.442 12.624L140.519 12.3339C139.985 12.1928 139.398 12.1546 138.763 12.2133L138.79 12.512L138.818 12.8107C139.396 12.7574 139.911 12.7939 140.366 12.9141L140.442 12.624ZM138.79 12.512L138.762 12.2133C138.117 12.2738 137.52 12.4813 136.975 12.8343L137.138 13.086L137.301 13.3377C137.765 13.0374 138.269 12.8622 138.818 12.8107L138.79 12.512ZM137.138 13.086L136.975 12.8341C136.466 13.1634 136.057 13.5665 135.751 14.0446L136.004 14.206L136.257 14.3674C136.512 13.9681 136.858 13.6246 137.301 13.3379L137.138 13.086ZM136.004 14.206L135.749 14.0485C135.46 14.5176 135.252 15.039 135.124 15.6104L135.416 15.676L135.709 15.7416C135.824 15.2303 136.008 14.7718 136.26 14.3635L136.004 14.206ZM135.416 15.676L135.124 15.6093C134.997 16.1651 134.934 16.7523 134.934 17.37H135.234H135.534C135.534 16.793 135.593 16.2509 135.709 15.7427L135.416 15.676ZM135.234 17.37H134.934V25H135.234H135.534V17.37H135.234ZM135.234 25V24.7H132.28V25V25.3H135.234V25ZM145.579 24.44L145.427 24.6988L145.43 24.7002L145.579 24.44ZM142.933 21.682L142.668 21.822L142.669 21.8245L142.933 21.682ZM142.919 13.268L142.652 13.1306L142.651 13.1322L142.919 13.268ZM145.523 10.454L145.369 10.1964L145.523 10.454ZM153.335 10.538L153.169 10.788L153.171 10.7889L153.335 10.538ZM155.757 13.576L155.479 13.6884L155.48 13.6901L155.757 13.576ZM156.401 18.266V18.566H156.683L156.7 18.2845L156.401 18.266ZM153.475 18.266H153.175V18.566H153.475V18.266ZM153.475 17.202H153.775L153.775 17.1988L153.475 17.202ZM152.467 13.31L152.229 13.4925L152.23 13.4942L152.467 13.31ZM146.209 13.436L146.443 13.6231L146.209 13.436ZM146.209 21.304L145.975 21.4923L145.976 21.4934L146.209 21.304ZM151.767 22.046L151.925 22.301L151.926 22.3004L151.767 22.046ZM153.335 20.254L153.426 19.968L153.178 19.8894L153.065 20.1238L153.335 20.254ZM156.205 21.164L156.48 21.2835L156.613 20.9785L156.296 20.878L156.205 21.164ZM153.531 24.314L153.689 24.5693L153.69 24.5684L153.531 24.314ZM144.151 18.266H143.851V18.566H144.151V18.266ZM144.151 15.984V15.684H143.851V15.984H144.151ZM154.945 15.984H155.245V15.684H154.945V15.984ZM154.945 18.266V18.566H155.245V18.266H154.945ZM149.541 25.42V25.12C148.083 25.12 146.815 24.8035 145.728 24.1798L145.579 24.44L145.43 24.7002C146.62 25.3832 147.994 25.72 149.541 25.72V25.42ZM145.579 24.44L145.731 24.1813C144.65 23.547 143.806 22.6683 143.197 21.5395L142.933 21.682L142.669 21.8245C143.329 23.0477 144.25 24.0077 145.427 24.6987L145.579 24.44ZM142.933 21.682L143.198 21.542C142.599 20.4064 142.295 19.0839 142.295 17.566H141.995H141.695C141.695 19.1655 142.016 20.587 142.668 21.822L142.933 21.682ZM141.995 17.566H142.295C142.295 15.9512 142.596 14.567 143.187 13.4038L142.919 13.268L142.651 13.1322C142.01 14.3957 141.695 15.8768 141.695 17.566H141.995ZM142.919 13.268L143.186 13.4054C143.787 12.239 144.617 11.344 145.677 10.7116L145.523 10.454L145.369 10.1964C144.208 10.8894 143.302 11.8703 142.652 13.1306L142.919 13.268ZM145.523 10.454L145.677 10.7116C146.735 10.0804 147.973 9.76 149.401 9.76V9.46V9.16C147.88 9.16 146.533 9.50226 145.369 10.1964L145.523 10.454ZM149.401 9.46V9.76C150.893 9.76 152.144 10.1076 153.169 10.7879L153.335 10.538L153.501 10.2881C152.361 9.53109 150.989 9.16 149.401 9.16V9.46ZM153.335 10.538L153.171 10.7889C154.197 11.4615 154.967 12.4234 155.479 13.6884L155.757 13.576L156.035 13.4636C155.483 12.0966 154.638 11.0331 153.499 10.2871L153.335 10.538ZM155.757 13.576L155.48 13.6901C156 14.9542 156.212 16.4701 156.102 18.2475L156.401 18.266L156.7 18.2845C156.814 16.4406 156.597 14.8298 156.034 13.4619L155.757 13.576ZM156.401 18.266V17.966H153.475V18.266V18.566H156.401V18.266ZM153.475 18.266H153.775V17.202H153.475H153.175V18.266H153.475ZM153.475 17.202L153.775 17.1988C153.756 15.4175 153.416 14.0417 152.704 13.1258L152.467 13.31L152.23 13.4942C152.825 14.2583 153.157 15.4771 153.175 17.2052L153.475 17.202ZM152.467 13.31L152.705 13.1275C151.99 12.195 150.906 11.75 149.513 11.75V12.05V12.35C150.771 12.35 151.656 12.745 152.229 13.4925L152.467 13.31ZM149.513 12.05V11.75C147.98 11.75 146.782 12.2367 145.975 13.2489L146.209 13.436L146.443 13.6231C147.11 12.7873 148.115 12.35 149.513 12.35V12.05ZM146.209 13.436L145.975 13.2489C145.179 14.2461 144.803 15.6579 144.803 17.44H145.103H145.403C145.403 15.7314 145.765 14.4739 146.443 13.6231L146.209 13.436ZM145.103 17.44H144.803C144.803 19.142 145.18 20.506 145.975 21.4923L146.209 21.304L146.443 21.1157C145.763 20.2726 145.403 19.0607 145.403 17.44H145.103ZM146.209 21.304L145.976 21.4934C146.782 22.4823 147.939 22.962 149.401 22.962V22.662V22.362C148.081 22.362 147.111 21.9363 146.442 21.1146L146.209 21.304ZM149.401 22.662V22.962C150.362 22.962 151.207 22.7459 151.925 22.301L151.767 22.046L151.609 21.791C151.001 22.1675 150.27 22.362 149.401 22.362V22.662ZM151.767 22.046L151.926 22.3004C152.65 21.8478 153.209 21.2055 153.605 20.3842L153.335 20.254L153.065 20.1238C152.714 20.8519 152.228 21.4042 151.608 21.7916L151.767 22.046ZM153.335 20.254L153.244 20.54L156.114 21.45L156.205 21.164L156.296 20.878L153.426 19.968L153.335 20.254ZM156.205 21.164L155.93 21.0445C155.365 22.3449 154.513 23.3467 153.372 24.0596L153.531 24.314L153.69 24.5684C154.939 23.788 155.869 22.6898 156.48 21.2835L156.205 21.164ZM153.531 24.314L153.373 24.0587C152.228 24.7655 150.953 25.12 149.541 25.12V25.42V25.72C151.059 25.72 152.444 25.3372 153.689 24.5693L153.531 24.314ZM144.151 18.266H144.451V15.984H144.151H143.851V18.266H144.151ZM144.151 15.984V16.284H154.945V15.984V15.684H144.151V15.984ZM154.945 15.984H154.645V18.266H154.945H155.245V15.984H154.945ZM154.945 18.266V17.966H144.151V18.266V18.566H154.945V18.266Z" fill="black" mask="url(#path-3-outside-1_12_978)"/>
</svg>
